<?xml version="1.0" standalone="no"?>
<!DOCTYPE svg PUBLIC "-//W3C//DTD SVG 20010904//EN"
 "http://www.w3.org/TR/2001/REC-SVG-20010904/DTD/svg10.dtd">
<svg version="1.0" xmlns="http://www.w3.org/2000/svg"
 width="700.000000pt" height="700.000000pt" viewBox="0 0 700.000000 700.000000"
 preserveAspectRatio="xMidYMid meet">
<metadata>
Created by potrace 1.11, written by Peter Selinger 2001-2013
</metadata>
<g transform="translate(0.000000,700.000000) scale(0.100000,-0.100000)"
fill="#000000" stroke="none">
<path d="M3278 6995 c-1 -1 -41 -5 -88 -9 -47 -4 -96 -8 -110 -10 -27 -5 -110
-16 -150 -21 -42 -6 -273 -54 -310 -66 -19 -5 -46 -12 -60 -15 -103 -21 -450
-153 -592 -225 -45 -24 -85 -43 -88 -44 -23 -3 -385 -228 -444 -276 -6 -5 -49
-39 -96 -76 -232 -182 -443 -396 -622 -630 -78 -103 -168 -230 -168 -237 0 -3
-13 -24 -28 -48 -16 -24 -38 -59 -48 -78 -10 -19 -22 -37 -25 -40 -15 -11
-171 -344 -212 -450 -107 -279 -190 -613 -213 -855 -2 -22 -7 -76 -11 -120
-15 -157 -8 -594 12 -706 2 -13 7 -44 9 -69 14 -124 25 -182 73 -375 99 -401
270 -780 511 -1131 58 -85 221 -293 267 -340 195 -204 267 -273 392 -376 84
-70 327 -248 338 -248 2 0 35 -20 72 -44 124 -79 314 -174 548 -271 83 -35
329 -112 433 -136 26 -6 56 -13 67 -15 45 -11 283 -52 330 -58 256 -31 703
-29 909 4 34 5 79 12 101 16 75 11 280 55 350 75 753 215 1373 632 1848 1242
209 268 399 610 514 926 101 277 176 608 200 886 13 142 9 598 -5 710 -47 361
-109 607 -229 915 -57 144 -196 425 -253 510 -9 14 -38 59 -65 100 -165 257
-432 561 -670 761 -538 451 -1124 709 -1835 805 -98 14 -640 30 -652 19z"/>
</g>
</svg>
