<?xml version="1.0" standalone="no"?>
<!DOCTYPE svg PUBLIC "-//W3C//DTD SVG 20010904//EN"
 "http://www.w3.org/TR/2001/REC-SVG-20010904/DTD/svg10.dtd">
<svg version="1.0" xmlns="http://www.w3.org/2000/svg"
 width="700.000000pt" height="700.000000pt" viewBox="0 0 700.000000 700.000000"
 preserveAspectRatio="xMidYMid meet">
<metadata>
Created by potrace 1.11, written by Peter Selinger 2001-2013
</metadata>
<g transform="translate(0.000000,700.000000) scale(0.100000,-0.100000)"
fill="#000000" stroke="none">
<path d="M2828 6700 c-56 -10 -138 -40 -218 -79 -368 -183 -887 -789 -1085
-1266 -46 -111 -64 -186 -66 -282 -1 -46 -5 -83 -9 -83 -5 0 -73 32 -151 71
-294 146 -434 184 -680 184 l-125 0 -79 -39 c-61 -30 -98 -58 -164 -125 -97
-97 -99 -100 -162 -196 -78 -119 -90 -143 -79 -150 5 -3 10 -4 10 -2 0 3 19 0
42 -5 24 -5 54 -12 68 -14 57 -11 176 -70 255 -126 108 -77 230 -204 370 -387
270 -351 350 -433 491 -504 75 -38 213 -65 215 -43 0 6 9 -29 19 -79 24 -117
50 -189 107 -303 83 -163 250 -363 415 -495 l46 -38 37 -157 c21 -86 40 -162
42 -167 3 -9 -23 -47 -157 -225 -10 -14 -62 -83 -115 -154 -53 -71 -101 -139
-106 -152 -22 -60 10 -191 75 -299 68 -114 243 -306 396 -435 36 -30 67 -58
70 -61 3 -3 75 -58 160 -123 85 -64 160 -120 166 -125 73 -59 569 -371 791
-497 l91 -52 94 52 c285 158 648 392 908 584 85 63 157 118 160 121 3 3 46 40
95 81 168 139 337 319 416 445 40 62 78 167 84 228 6 58 -8 108 -36 137 -14
15 -330 436 -342 456 -3 5 5 53 18 105 13 52 26 105 29 119 6 32 12 58 21 92
4 15 28 44 53 65 280 225 461 504 521 799 10 48 21 83 24 77 11 -18 141 9 211
44 143 72 218 150 517 537 106 138 234 273 318 337 100 74 245 141 339 155 75
11 75 11 50 52 -149 248 -290 393 -433 448 -70 27 -262 26 -405 -1 -127 -24
-246 -68 -425 -158 -187 -93 -172 -94 -174 8 -2 81 -17 156 -46 230 -46 117
-89 203 -171 340 -72 120 -69 115 -148 224 -115 158 -217 280 -339 403 -236
238 -440 373 -642 425 -41 10 -1308 13 -1367 3z"/>
</g>
</svg>
